<svg id="Camada_1" data-name="Camada 1" xmlns="http://www.w3.org/2000/svg" viewBox="0 0 107.84 66.43"><title>back_button</title><path d="M101,.73H7.1A6.2,6.2,0,0,0,.92,6.91V59.63A6.2,6.2,0,0,0,7.1,65.81H101a6.2,6.2,0,0,0,6.18-6.18V6.91A6.2,6.2,0,0,0,101,.73ZM93.19,54a1,1,0,0,1-1,1H82.3a.93.93,0,0,1-.6-.21l-3.27-2.53-2.55-2a1,1,0,0,1,0-1.55l2.55-2L81.7,44.2a1,1,0,0,1,.6-.21h9.91a1,1,0,0,1,1,1Z"/><polygon points="87.66 49.44 89.28 51.06 88.67 51.66 87.05 50.04 85.45 51.64 84.84 51.03 86.44 49.43 84.84 47.83 85.45 47.22 87.05 48.82 88.68 47.2 89.29 47.81 87.66 49.44"/></svg>