<svg id="Camada_1" data-name="Camada 1" xmlns="http://www.w3.org/2000/svg" viewBox="0 0 57.77 28.71"><defs><style>.cls-1{stroke:#000;stroke-miterlimit:10;stroke-width:0.25px;}</style></defs><title>powerbutton</title><path class="cls-1" d="M52.85,1h-48A3.89,3.89,0,0,0,.94,4.88v19a3.88,3.88,0,0,0,3.88,3.87h48a3.89,3.89,0,0,0,3.88-3.87v-19A3.9,3.9,0,0,0,52.85,1ZM28.38,7.74h1v8.13h-1Zm.52,13.74A7.11,7.11,0,0,1,24.51,8.76l.63.78A6.1,6.1,0,1,0,33.7,10.6a6.23,6.23,0,0,0-.91-.94l.67-.79A7.15,7.15,0,0,1,28.9,21.48Z"/></svg>